# ProBuilder 4.4.0
# https://unity3d.com/unity/features/worldbuilding/probuilder
# 10/25/2020 4:33:18 PM

mtllib ./SM_Prop_Bookshelf_01_EDIT.mtl
o SM_Prop_Bookshelf_01_EDIT

g SM_Prop_Bookshelf_01_EDIT
v 0.2619922 2.185104 0.148855
v 0.440166 2.185104 0.1895837
v 0.2594739 2.158854 0.1895837
v -0.3845727 2.185104 0.1531665
v -0.3233545 2.185104 0.1895837
v -0.3844726 2.165 0.1895837
v -0.264143 2.185104 -0.1574109
v -0.4115576 2.185104 -0.1895837
v -0.2582593 2.149069 -0.1895837
v -0.1285181 2.185104 -0.1895837
v -0.4356335 2.185104 0.1895837
v 0.02706177 2.185104 0.1895837
v -0.5380334 1.757857 -0.1584302
v 0.5380347 1.757857 -0.1584302
v 0.5380347 1.757857 0.1627783
v -0.5380334 1.757857 0.1627783
v 0.5380347 1.716811 0.1627783
v -0.5380334 1.716811 0.1627783
v 0.5380347 1.716811 -0.1584302
v -0.5380334 1.716811 -0.1584302
v -0.5380334 1.329857 -0.1584302
v 0.5380347 1.329857 -0.1584302
v 0.5380347 1.329857 0.1627783
v -0.5380334 1.329857 0.1627783
v 0.5380347 1.288811 0.1627783
v -0.5380334 1.288811 0.1627783
v 0.5380347 1.288811 -0.1584302
v -0.5380334 1.288811 -0.1584302
v -0.5753564 0 -0.1895837
v -0.5753564 2.185104 -0.1895837
v -0.5753564 2.185104 0.1895837
v -0.5753564 0 0.1895837
v 0.5753564 2.185104 -0.1895837
v 0.5753564 2.185104 0.1895837
v 0.5753564 0 -0.1895837
v 0.5753564 0 0.1895837
v -0.5380347 0.04104614 -0.158429
v -0.5380347 2.144058 -0.158429
v 0.5380347 2.144058 -0.158429
v 0.5380347 0.04104614 -0.158429
v -0.5380347 0.04104614 0.1895837
v 0.5380347 0.04104614 0.1895837
v 0.5380347 2.144058 0.1895837
v -0.5380347 2.144058 0.1895837
v -0.0308504 0.7314025 0.1427464
v -0.5380334 0.8608112 0.1588793
v -0.5380334 0.9018574 0.1588793
v -0.0308504 0.7691225 0.1589326
v 6.258488E-07 0.8997799 -0.1482276
v -0.5380334 0.9018574 -0.1564277
v -0.5380334 0.8608112 -0.1507365
v 6.258488E-07 0.8584327 -0.1509826
v 0.5380347 0.8608112 0.1588793
v 0.02033986 0.7314025 0.1427464
v 0.02033986 0.7691225 0.1589326
v 0.5380347 0.9018574 0.1588793
v 0.5380347 0.8608112 -0.1544161
v 0.5380347 0.9018574 -0.1567658
v 0.000355836 0.9000862 -0.1497059
v 0.000355836 0.859417 -0.1557329
v 0.5380347 0.9018574 0.001056761
v 0.5380347 0.8608112 0.002231628
v -0.01075025 0.8314356 0.01371994
v -0.01075025 0.7932522 -0.001386642
v -0.5380334 0.8608112 0.004071444
v -0.5380334 0.9018574 0.001225799
v -0.01216226 0.8311378 0.0144136
v -0.01216226 0.7922958 0.0008424148

vt 0.003989574 0.3034834
vt 0.5271532 0.8948951
vt 0.955907 0.8969375
vt 0.9559013 0.8559184
vt 0.527156 0.8535355
vt 0.098414 0.8558948
vt 0.09841639 0.8969296
vt 0.5268717 0.8951945
vt 0.5268778 0.8544976
vt 0.4001415 0.8566289
vt 0.4001415 0.8976751
vt 0.5259064 0.8976751
vt 0.5249702 0.8566289
vt 0.6516713 0.8976751
vt 0.6497989 0.8566289
vt 0.6547986 0.7643837
vt 0.6419228 0.7266515
vt 0.525802 0.7890743
vt 0.537819 0.8272679
vt 0.4035466 0.8546818
vt 0.4083409 0.8953462
vt 0.6538191 0.8976751
vt 0.6538191 0.8566289
vt 0.5304566 0.8566289
vt 0.5281889 0.8976751
vt 0.4070941 0.8566289
vt 0.4025588 0.8976751
vt 0.6434867 0.8950815
vt 0.6456727 0.8537387
vt 0.5243088 0.7876589
vt 0.5135403 0.8265191
vt 0.4103379 0.726659
vt 0.3974944 0.7644026

vn -0.01374225 0.8359282 0.5379101
vn -0.1216975 0.8377098 0.5323833
vn -0.2766334 0.8409658 0.4650275
vn -0.009792574 0.655494 -0.7359888
vn 0.1579337 0.6718592 -0.7236451
vn -0.1775188 0.6391288 -0.7483325
vn 0.3254455 0.8281711 0.4563089
vn 0.09421304 0.8341465 0.5434368
vn 0 1 0
vn 0 0 1
vn 0 -1 0
vn -1 0 0
vn 1 0 0
vn 0 0 -1
vn -0.03548012 -0.1961274 0.9567971
vn 0.03179285 0 0.9994945
vn -0.1027531 -0.3922547 0.9140996
vn 0.01546204 0.06647409 -0.9976683
vn 0.0072009 -0.03543379 -0.9940957
vn -0.001060241 -0.1373417 -0.9905232
vn 0.03493444 -0.1966906 0.9583623
vn 0.06976596 -0.3933811 0.9167246
vn -0.005438557 0.04472329 -0.9937384
vn -0.01291958 -0.05714775 -0.9982821
vn 0.002042462 0.1465943 -0.9891946
vn -0.05624756 0.9595337 0.189328
vn -0.003294164 0.9999946 0
vn -0.109201 0.9190728 0.3786559
vn -0.1272796 0.9918669 0
vn -0.1760564 0.9344677 0.2122505
vn -0.2248333 0.8770684 0.424501
vn 0.1782478 -0.9369886 -0.206217
vn 0.2425092 -0.9701491 0
vn 0.1139864 -0.9038281 -0.412434
vn 0.1221841 -0.9925075 0
vn 0.06276602 -0.9558496 -0.196898
vn 0.003347908 -0.9191917 -0.3937961
vn -0.9810441 -0.0738624 0.1791331
vn -0.9809142 -0.07667632 0.1786844
vn -0.9811741 -0.07104848 0.1795818
vn -0.9978185 0.02428689 -0.06138745
vn -0.9978669 0.01687398 -0.06261469
vn -0.9979152 0.009461074 -0.06384195
vn 0.003861288 0.9999925 0
vn 0.05834494 0.9561833 0.1967508
vn 0.1128286 0.912374 0.3935016
vn 0.1821538 0.9369999 0.204375
vn 0.2310266 0.8829215 0.4087499
vn 0.1332811 0.9910783 0
vn -0.2472311 -0.9689565 0
vn -0.183906 -0.937681 -0.2024164
vn -0.1205809 -0.9064053 -0.4048329
vn -0.06671632 -0.9541389 -0.199824
vn -0.004235143 -0.9166589 -0.399648
vn -0.1291975 -0.9916189 0
vn 0.9973534 -0.004833673 0.07254559
vn 0.9973261 -0.0145305 0.07094334
vn 0.9972988 -0.02422733 0.06934109
vn 0.9928681 -0.04319668 0.1110369
vn 0.9927561 -0.04737894 0.1104106
vn 0.99298 -0.03901441 0.1116632

usemtl Bookshelf
f 6/1/3 5/1/3 4/1/3
f 6/1/7 4/1/7 11/1/7
f 2/1/9 34/1/9 33/1/9
f 1/1/9 2/1/9 33/1/9
f 33/1/9 10/1/9 7/1/9
f 7/1/9 8/1/9 30/1/9
f 31/1/9 11/1/9 30/1/9
f 10/1/14 33/1/14 35/1/14
f 9/1/14 10/1/14 35/1/14
f 30/1/14 8/1/14 9/1/14
f 12/1/10 5/1/10 6/1/10
f 6/1/10 44/1/10 43/1/10
f 3/1/1 2/1/2 1/1/1
f 1/1/1 12/1/8 3/1/1
f 9/1/4 8/1/5 7/1/4
f 7/1/4 10/1/6 9/1/4
f 15/1/9 14/1/9 13/1/9
f 13/1/9 16/1/9 15/1/9
f 18/1/10 17/1/10 15/1/10
f 15/1/10 16/1/10 18/1/10
f 20/1/11 19/1/11 17/1/11
f 17/1/11 18/1/11 20/1/11
f 23/1/9 22/1/9 21/1/9
f 21/1/9 24/1/9 23/1/9
f 26/1/10 25/1/10 23/1/10
f 23/1/10 24/1/10 26/1/10
f 28/1/11 27/1/11 25/1/11
f 25/1/11 26/1/11 28/1/11
f 31/1/12 30/1/12 29/1/12
f 29/1/12 32/1/12 31/1/12
f 1/1/9 33/1/9 7/1/9
f 7/1/9 4/1/9 1/1/9
f 5/1/9 12/1/9 1/1/9
f 1/1/9 4/1/9 5/1/9
f 4/1/9 7/1/9 30/1/9
f 30/1/9 11/1/9 4/1/9
f 36/1/13 35/1/13 33/1/13
f 33/1/13 34/1/13 36/1/13
f 32/1/11 29/1/11 35/1/11
f 35/1/11 36/1/11 32/1/11
f 39/1/10 38/1/10 37/1/10
f 37/1/10 40/1/10 39/1/10
f 30/1/14 9/1/14 35/1/14
f 35/1/14 29/1/14 30/1/14
f 40/1/9 37/1/9 41/1/9
f 41/1/9 42/1/9 40/1/9
f 39/1/12 40/1/12 42/1/12
f 42/1/12 43/1/12 39/1/12
f 38/1/11 39/1/11 43/1/11
f 43/1/11 44/1/11 38/1/11
f 37/1/13 38/1/13 44/1/13
f 44/1/13 41/1/13 37/1/13
f 3/1/10 12/1/10 6/1/10
f 6/1/10 43/1/10 3/1/10
f 3/1/10 43/1/10 34/1/10
f 34/1/10 2/1/10 3/1/10
f 36/1/10 34/1/10 43/1/10
f 43/1/10 42/1/10 36/1/10
f 32/1/10 36/1/10 42/1/10
f 42/1/10 41/1/10 32/1/10
f 31/1/10 32/1/10 41/1/10
f 41/1/10 44/1/10 31/1/10
f 44/1/10 6/1/10 11/1/10
f 11/1/10 31/1/10 44/1/10
f 47/1/15 46/1/16 45/1/15
f 45/1/15 48/1/17 47/1/15
f 50/3/19 49/2/18 52/5/19
f 52/5/19 51/4/20 50/3/19
f 55/1/21 54/1/22 53/1/21
f 53/1/21 56/1/10 55/1/21
f 59/8/23 58/7/24 57/6/23
f 57/6/23 60/9/25 59/8/23
f 53/10/13 62/13/13 61/12/13
f 61/12/13 56/11/13 53/10/13
f 62/13/13 57/15/13 58/14/13
f 58/14/13 61/12/13 62/13/13
f 61/1/26 58/1/27 59/1/26
f 59/1/26 63/1/28 61/1/26
f 56/1/30 61/1/29 63/1/30
f 63/1/30 55/1/31 56/1/30
f 62/1/32 53/1/33 54/1/32
f 54/1/32 64/1/34 62/1/32
f 57/1/36 62/1/35 64/1/36
f 64/1/36 60/1/37 57/1/36
f 63/19/40 64/18/38 54/17/39
f 54/17/39 55/16/38 63/19/40
f 60/20/42 64/18/41 63/19/42
f 63/19/42 59/21/43 60/20/42
f 65/24/12 46/23/12 47/22/12
f 47/22/12 66/25/12 65/24/12
f 50/27/12 51/26/12 65/24/12
f 65/24/12 66/25/12 50/27/12
f 49/1/45 50/1/44 66/1/45
f 66/1/45 67/1/46 49/1/45
f 67/1/47 66/1/49 47/1/47
f 47/1/47 48/1/48 67/1/47
f 68/1/52 45/1/51 46/1/50
f 46/1/50 65/1/51 68/1/52
f 52/1/54 68/1/53 65/1/55
f 65/1/55 51/1/53 52/1/54
f 68/30/58 52/29/57 49/28/56
f 49/28/56 67/31/57 68/30/58
f 45/32/60 68/30/59 67/31/61
f 67/31/61 48/33/59 45/32/60

